<svg width="48" height="49" viewBox="0 0 48 49" fill="none" xmlns="http://www.w3.org/2000/svg">
<g clip-path="url(#clip0_3552_6119)">
<circle cx="24" cy="24.5" r="23" fill="#FF8A8A" fill-opacity="0.07" stroke="#AAAAAA" stroke-width="2"/>
<mask id="path-2-inside-1_3552_6119" fill="white">
<path fill-rule="evenodd" clip-rule="evenodd" d="M6 40.375V39.5C6 33.515 17.9925 30.5 24 30.5C30.0075 30.5 42 33.515 42 39.5V40.3749C37.6023 45.3575 31.1682 48.5 24 48.5C16.8318 48.5 10.3977 45.3575 6 40.375ZM24 10.5C19.0275 10.5 15 14.5275 15 19.5C15 24.4725 19.0275 28.5 24 28.5C28.9725 28.5 33 24.4725 33 19.5C33 14.5275 28.9725 10.5 24 10.5Z"/>
</mask>
<path fill-rule="evenodd" clip-rule="evenodd" d="M6 40.375V39.5C6 33.515 17.9925 30.5 24 30.5C30.0075 30.5 42 33.515 42 39.5V40.3749C37.6023 45.3575 31.1682 48.5 24 48.5C16.8318 48.5 10.3977 45.3575 6 40.375ZM24 10.5C19.0275 10.5 15 14.5275 15 19.5C15 24.4725 19.0275 28.5 24 28.5C28.9725 28.5 33 24.4725 33 19.5C33 14.5275 28.9725 10.5 24 10.5Z" fill="#FF8A8A" fill-opacity="0.07"/>
<path d="M6 40.375H4V41.1313L4.50052 41.6984L6 40.375ZM42 40.3749L43.4995 41.6984L44 41.1313V40.3749H42ZM8 40.375V39.5H4V40.375H8ZM8 39.5C8 38.7383 8.36568 37.9231 9.32415 37.0385C10.2962 36.1414 11.7385 35.3142 13.4909 34.6122C16.9991 33.2068 21.2463 32.5 24 32.5V28.5C20.7462 28.5 15.9934 29.3007 12.0034 30.8991C10.0069 31.6989 8.07551 32.7477 6.61124 34.0991C5.13338 35.4631 4 37.2692 4 39.5H8ZM24 32.5C26.7537 32.5 31.0009 33.2068 34.5091 34.6122C36.2615 35.3142 37.7038 36.1414 38.6758 37.0385C39.6343 37.9231 40 38.7383 40 39.5H44C44 37.2692 42.8666 35.4631 41.3888 34.0991C39.9245 32.7477 37.9931 31.6989 35.9966 30.8991C32.0066 29.3007 27.2538 28.5 24 28.5V32.5ZM40 39.5V40.3749H44V39.5H40ZM40.5005 39.0515C36.4664 43.6221 30.5705 46.5 24 46.5V50.5C31.7658 50.5 38.7383 47.0928 43.4995 41.6984L40.5005 39.0515ZM24 46.5C17.4295 46.5 11.5336 43.6221 7.49948 39.0515L4.50052 41.6984C9.26173 47.0928 16.2342 50.5 24 50.5V46.5ZM17 19.5C17 15.6321 20.1321 12.5 24 12.5V8.5C17.9229 8.5 13 13.4229 13 19.5H17ZM24 26.5C20.1321 26.5 17 23.3679 17 19.5H13C13 25.5771 17.9229 30.5 24 30.5V26.5ZM31 19.5C31 23.3679 27.8679 26.5 24 26.5V30.5C30.0771 30.5 35 25.5771 35 19.5H31ZM24 12.5C27.8679 12.5 31 15.6321 31 19.5H35C35 13.4229 30.0771 8.5 24 8.5V12.5Z" fill="#AAAAAA" mask="url(#path-2-inside-1_3552_6119)"/>
</g>
<defs>
<clipPath id="clip0_3552_6119">
<rect width="48" height="48" fill="white" transform="translate(0 0.5)"/>
</clipPath>
</defs>
</svg>
