<svg width="47" height="49" viewBox="0 0 47 49" fill="none" xmlns="http://www.w3.org/2000/svg">
<g clip-path="url(#clip0_3552_6118)">
<path d="M17.6243 44.5C18.7059 44.5 19.5827 43.6046 19.5827 42.5C19.5827 41.3954 18.7059 40.5 17.6243 40.5C16.5428 40.5 15.666 41.3954 15.666 42.5C15.666 43.6046 16.5428 44.5 17.6243 44.5Z" stroke="#111111" stroke-width="4" stroke-linecap="round" stroke-linejoin="round"/>
<path d="M39.1673 44.5C40.2489 44.5 41.1257 43.6046 41.1257 42.5C41.1257 41.3954 40.2489 40.5 39.1673 40.5C38.0858 40.5 37.209 41.3954 37.209 42.5C37.209 43.6046 38.0858 44.5 39.1673 44.5Z" stroke="#111111" stroke-width="4" stroke-linecap="round" stroke-linejoin="round"/>
<path d="M1.95898 2.5H9.79232L15.0407 29.28C15.2197 30.2008 15.7102 31.0279 16.4263 31.6166C17.1423 32.2053 18.0383 32.518 18.9573 32.5H37.9923C38.9114 32.518 39.8073 32.2053 40.5234 31.6166C41.2394 31.0279 41.7299 30.2008 41.909 29.28L45.0423 12.5H11.7507" stroke="#111111" stroke-width="4" stroke-linecap="round" stroke-linejoin="round"/>
</g>
<defs>
<clipPath id="clip0_3552_6118">
<rect width="47" height="48" fill="white" transform="translate(0 0.5)"/>
</clipPath>
</defs>
</svg>
